<?xml version="1.0" encoding="UTF-8" standalone="no"?>
<!-- Created with Inkscape (http://www.inkscape.org/) -->

<svg
   width="68.807167mm"
   height="66.407829mm"
   viewBox="0 0 68.807167 66.407829"
   version="1.1"
   id="svg5"
   inkscape:version="1.2.2 (732a01da63, 2022-12-09)"
   sodipodi:docname="logo-3.svg"
   inkscape:export-filename="logo-2.svg"
   inkscape:export-xdpi="96"
   inkscape:export-ydpi="96"
   xmlns:inkscape="http://www.inkscape.org/namespaces/inkscape"
   xmlns:sodipodi="http://sodipodi.sourceforge.net/DTD/sodipodi-0.dtd"
   xmlns="http://www.w3.org/2000/svg"
   xmlns:svg="http://www.w3.org/2000/svg">
  <sodipodi:namedview
     id="namedview7"
     pagecolor="#ffffff"
     bordercolor="#000000"
     borderopacity="0.25"
     inkscape:showpageshadow="2"
     inkscape:pageopacity="0.0"
     inkscape:pagecheckerboard="0"
     inkscape:deskcolor="#d1d1d1"
     inkscape:document-units="mm"
     showgrid="false"
     inkscape:zoom="0.74564394"
     inkscape:cx="132.10058"
     inkscape:cy="561.9304"
     inkscape:window-width="1920"
     inkscape:window-height="1017"
     inkscape:window-x="-8"
     inkscape:window-y="-8"
     inkscape:window-maximized="1"
     inkscape:current-layer="layer1" />
  <defs
     id="defs2" />
  <g
     inkscape:label="Слой 1"
     inkscape:groupmode="layer"
     id="layer1"
     transform="translate(-7.9404175,-4.2051743)">
    <path
       id="text113"
       style="font-size:100.297px;fill:#008080;stroke-width:8.3581"
       d="m 7.9404175,4.2051742 v 1.81229 c 4.1137315,0.1306 6.7420815,0.78318 7.8847895,1.95854 1.142708,1.17535 1.713591,3.9506598 1.713591,8.3255898 v 14.21463 h 9.403043 V 7.8292442 H 57.746165 V 30.516224 h 9.40252 v -14.21463 c 0,-4.37493 0.57141,-7.1502398 1.71411,-8.3255898 1.14271,-1.17536 3.77107,-1.82794 7.88479,-1.95854 v -1.81229 z M 40.316219,33.889664 c -0.509465,0 -0.996105,0.0842 -1.460376,0.2527 -0.295819,0.11093 -0.488904,0.1664 -0.579293,0.1664 -0.238298,0 -0.390565,-0.13553 -0.456303,-0.4067 h -0.215491 v 2.42828 h 0.215491 c 0.102715,-0.56699 0.318819,-1.02327 0.647506,-1.36839 0.332796,-0.34923 0.792749,-0.52348 1.380277,-0.52348 0.472488,0 0.84662,0.14338 1.121895,0.43098 0.27528,0.2876 0.4129,0.65755 0.4129,1.10949 0,0.39032 -0.0989,0.73358 -0.29611,1.02939 -0.19721,0.29582 -0.454135,0.50932 -0.770496,0.64079 -0.316362,0.13148 -0.786778,0.19741 -1.411284,0.19741 v 0.40669 c 0.883347,0 1.516494,0.18681 1.89859,0.56069 0.3821,0.37388 0.57309,0.83174 0.57309,1.37408 0,0.5259 -0.15226,0.97172 -0.4563,1.33738 -0.299926,0.36156 -0.723246,0.5426 -1.269689,0.5426 -0.460162,0 -0.889243,-0.12348 -1.287776,-0.37 -0.398533,-0.24651 -0.702551,-0.54007 -0.912089,-0.88108 l -0.209807,0.13539 c 0.649158,1.11754 1.563303,1.67638 2.742469,1.67638 0.792962,0 1.456462,-0.21768 1.990572,-0.65319 0.53412,-0.43551 0.80151,-0.99854 0.80151,-1.68878 0,-0.55877 -0.17477,-1.04332 -0.524,-1.45418 -0.34923,-0.41496 -0.80709,-0.67398 -1.37408,-0.77669 0.52179,-0.16846 0.94093,-0.43114 1.25729,-0.78859 0.31636,-0.36155 0.47439,-0.79534 0.47439,-1.30069 0,-0.55466 -0.20983,-1.03921 -0.62891,-1.45418 -0.41907,-0.41496 -0.97373,-0.6227 -1.663976,-0.6227 z m 7.395416,0 -2.93936,6.87762 c -0.25473,0.60396 -0.48706,1.00478 -0.6966,1.20199 -0.10271,0.0986 -0.32876,0.17867 -0.67799,0.2403 v 0.22789 h 2.63188 v -0.22789 c -0.40264,-0.0288 -0.66584,-0.0905 -0.7891,-0.185 -0.11915,-0.0986 -0.1788,-0.21164 -0.1788,-0.339 0,-0.16024 0.0701,-0.40251 0.20981,-0.72709 l 0.56689,-1.31878 h 3.23546 l 0.50539,1.20199 c 0.16435,0.39032 0.2465,0.6755 0.2465,0.85628 0,0.13558 -0.0597,0.2507 -0.1788,0.3452 -0.11504,0.0945 -0.339,0.14996 -0.67179,0.1664 v 0.22789 h 3.29747 v -0.22789 c -0.34101,-0.0205 -0.6084,-0.11316 -0.8015,-0.2775 -0.189,-0.16846 -0.4004,-0.53161 -0.63459,-1.09038 l -2.90886,-6.95203 z m -38.5547545,0.1912 v 0.2279 c 0.517683,0.0164 0.8483865,0.0986 0.9921875,0.24649 0.143801,0.14791 0.215491,0.49745 0.215491,1.048 v 5.31234 c 0,0.55055 -0.07169,0.89957 -0.215491,1.04748 -0.143801,0.14791 -0.4745045,0.23006 -0.9921875,0.2465 v 0.22789 h 3.5992635 v -0.22789 c -0.521791,-0.0164 -0.854588,-0.0986 -0.998389,-0.2465 -0.139692,-0.14791 -0.209806,-0.49693 -0.209806,-1.04748 v -6.37894 h 3.876766 v 6.37894 c 0,0.55466 -0.07221,0.90577 -0.216008,1.05368 -0.1438,0.1438 -0.472412,0.22386 -0.985986,0.2403 v 0.22789 h 3.593062 v -0.22789 c -0.517682,-0.0164 -0.848386,-0.0986 -0.992187,-0.2465 -0.143801,-0.14791 -0.216008,-0.49693 -0.216008,-1.04748 v -5.31234 c 0,-0.55055 0.07221,-0.90009 0.216008,-1.048 0.143801,-0.1479 0.474505,-0.23006 0.992187,-0.24649 v -0.2279 z m 9.1456945,0 v 0.2279 h 0.29559 c 0.345121,0 0.592097,0.0822 0.740006,0.24649 0.106823,0.12326 0.160197,0.44978 0.160197,0.97979 v 5.42964 c 0,0.40675 -0.02511,0.67571 -0.07441,0.80719 -0.04519,0.13147 -0.133108,0.23037 -0.264583,0.2961 -0.17667,0.0945 -0.363994,0.1416 -0.561206,0.1416 h -0.29559 v 0.22789 h 6.440434 l 0.720886,-2.09496 h -0.246496 c -0.267058,0.51357 -0.528166,0.89765 -0.782898,1.15238 -0.197212,0.19311 -0.402336,0.32236 -0.615983,0.38809 -0.213647,0.0657 -0.556907,0.0987 -1.029395,0.0987 h -1.417484 c -0.230081,0 -0.386017,-0.0225 -0.468189,-0.0677 -0.08217,-0.0493 -0.13973,-0.11314 -0.172599,-0.1912 -0.03287,-0.0822 -0.04961,-0.30823 -0.04961,-0.678 v -2.75487 h 1.83658 c 0.34923,0 0.608245,0.0413 0.776697,0.12351 0.168452,0.0822 0.289847,0.19519 0.363802,0.33899 0.05752,0.11504 0.115079,0.37564 0.172599,0.78239 h 0.227893 v -2.90887 h -0.227893 c -0.02465,0.4766 -0.143954,0.80939 -0.357601,0.99839 -0.160235,0.1438 -0.478901,0.21601 -0.955497,0.21601 h -1.83658 v -3.30368 h 2.292883 c 0.414968,0 0.704337,0.0309 0.868681,0.0925 0.205429,0.0863 0.359789,0.21186 0.462504,0.37621 0.106823,0.16434 0.203107,0.46626 0.289388,0.90588 h 0.240295 l -0.09198,-1.83038 z m 7.660515,0 v 0.2279 c 0.341013,0 0.587472,0.0413 0.73949,0.1235 0.156126,0.0781 0.262873,0.17644 0.320393,0.29559 0.08217,0.16435 0.123507,0.43122 0.123507,0.80099 v 5.46065 c 0,0.46838 -0.04552,0.76821 -0.135909,0.89968 -0.147909,0.21365 -0.398553,0.3204 -0.751892,0.3204 H 25.96309 v 0.22789 h 2.908866 v -0.22789 H 28.57585 c -0.328687,0 -0.568868,-0.0863 -0.720886,-0.2589 -0.110932,-0.12737 -0.166398,-0.44761 -0.166398,-0.96118 v -5.58364 l 3.22926,7.03161 h 0.203605 l 3.223059,-7.03161 v 5.58364 c 0,0.46838 -0.045,0.76821 -0.135392,0.89968 -0.143801,0.21365 -0.394445,0.3204 -0.751892,0.3204 H 33.1611 v 0.22789 h 3.550171 v -0.22789 h -0.289905 c -0.328687,0 -0.568868,-0.0863 -0.720886,-0.2589 -0.115041,-0.12737 -0.172599,-0.44761 -0.172599,-0.96118 v -5.46065 c 0,-0.46838 0.045,-0.76821 0.135392,-0.89969 0.147909,-0.21364 0.400646,-0.32039 0.758093,-0.32039 h 0.289905 v -0.2279 H 34.34449 l -2.982763,6.53862 -3.032373,-6.53862 z m 26.746685,0 v 0.2279 c 0.36567,0.0205 0.61631,0.0619 0.75189,0.1235 0.13559,0.0616 0.23239,0.16629 0.28991,0.3142 0.0616,0.14791 0.0925,0.43361 0.0925,0.85679 v 5.31234 c 0,0.55055 -0.0722,0.89957 -0.21601,1.04748 -0.1438,0.14791 -0.4745,0.23006 -0.99218,0.2465 v 0.22789 h 3.53776 c 1.12576,0 1.91851,-0.2339 2.37867,-0.70228 0.46016,-0.46838 0.6904,-1.0131 0.6904,-1.63349 0,-0.51358 -0.15227,-0.95312 -0.45631,-1.31879 -0.29992,-0.36566 -0.69028,-0.61212 -1.17098,-0.73949 -0.48071,-0.13147 -1.23212,-0.19688 -2.25516,-0.19688 h -0.3328 v -3.30988 h 1.40508 c 0.69846,0 1.18301,0.0801 1.45418,0.2403 0.27527,0.16023 0.47882,0.53646 0.6103,1.12809 h 0.22169 l -0.0863,-1.82418 z m 7.21093,0 v 0.2279 h 0.29559 c 0.34512,0 0.59158,0.0822 0.73949,0.24649 0.10682,0.12326 0.1602,0.44978 0.1602,0.97979 v 5.42964 c 0,0.40675 -0.0246,0.67571 -0.0739,0.80719 -0.0452,0.13147 -0.13362,0.23037 -0.2651,0.2961 -0.17667,0.0945 -0.36348,0.1416 -0.56069,0.1416 h -0.29559 v 0.22789 h 6.43992 l 0.7214,-2.09496 h -0.24649 c -0.26706,0.51357 -0.52817,0.89765 -0.7829,1.15238 -0.19721,0.19311 -0.40286,0.32236 -0.6165,0.38809 -0.21365,0.0657 -0.55639,0.0987 -1.02888,0.0987 h -1.41748 c -0.23009,0 -0.38654,-0.0225 -0.46871,-0.0677 -0.0822,-0.0493 -0.13921,-0.11314 -0.17208,-0.1912 -0.0329,-0.0822 -0.0496,-0.30823 -0.0496,-0.678 v -2.75487 h 1.83658 c 0.34923,0 0.60824,0.0413 0.7767,0.12351 0.16845,0.0822 0.28933,0.19519 0.36328,0.33899 0.0575,0.11504 0.11508,0.37564 0.1726,0.78239 h 0.22841 v -2.90887 h -0.22841 c -0.0247,0.4766 -0.14344,0.80939 -0.35708,0.99839 -0.16024,0.1438 -0.47891,0.21601 -0.9555,0.21601 h -1.83658 v -3.30368 h 2.29288 c 0.41497,0 0.70434,0.0309 0.86868,0.0925 0.20543,0.0863 0.35979,0.21186 0.46251,0.37621 0.10682,0.16434 0.2031,0.46626 0.28938,0.90588 h 0.2403 l -0.0925,-1.83038 z m 8.8868,0 v 0.2279 c 0.51768,0.0164 0.84838,0.0986 0.99219,0.24649 0.1438,0.14791 0.21549,0.49745 0.21549,1.048 v 1.74977 c 0,1.65576 -0.11303,2.78182 -0.339,3.37757 -0.22597,0.59164 -0.51744,0.88728 -0.87488,0.88728 -0.14791,0 -0.31431,-0.0675 -0.4992,-0.20309 -0.16434,-0.12325 -0.31033,-0.185 -0.4377,-0.185 -0.15201,0 -0.28126,0.0555 -0.38809,0.1664 -0.10682,0.11093 -0.16019,0.24227 -0.16019,0.39429 0,0.19721 0.0821,0.37198 0.24649,0.524 0.16435,0.14791 0.39825,0.22169 0.70229,0.22169 0.71489,0 1.27583,-0.35111 1.68258,-1.05368 0.40675,-0.70668 0.6103,-2.24141 0.6103,-4.60385 v -2.34198 h 2.58847 v 6.37894 c 0,0.55055 -0.0722,0.89957 -0.21601,1.04748 -0.1438,0.14791 -0.4745,0.23006 -0.99218,0.2465 v 0.22789 h 3.59306 v -0.22789 c -0.51768,-0.0164 -0.84839,-0.0986 -0.99219,-0.2465 -0.1438,-0.14791 -0.21549,-0.49693 -0.21549,-1.04748 v -5.31234 c 0,-0.55055 0.0717,-0.90009 0.21549,-1.048 0.1438,-0.1479 0.47451,-0.23006 0.99219,-0.24649 v -0.2279 z m -21.32376,1.72548 1.41748,3.37706 h -2.87166 z m 8.10441,2.49597 c 0.65737,0 1.19948,0.15018 1.62677,0.4501 0.4273,0.29582 0.64131,0.75159 0.64131,1.36788 0,0.59575 -0.20564,1.06198 -0.6165,1.39888 -0.40675,0.3369 -0.86304,0.5054 -1.36839,0.5054 -0.20132,0 -0.48232,-0.0288 -0.84388,-0.0863 v -3.58686 c 0.189,-0.0329 0.3758,-0.0491 0.56069,-0.0491 z m -38.049357,7.4719 v 12.74237 c 0,4.37493 -0.570883,7.15024 -1.713591,8.32559 -1.142708,1.17536 -3.771058,1.82794 -7.8847895,1.95854 v 1.81229 H 36.540739 v -1.81229 c -4.146382,-0.1306 -6.791185,-0.78318 -7.933883,-1.95854 -1.110058,-1.17535 -1.665015,-3.95066 -1.665015,-8.32559 v -12.74237 z m 40.207367,0 v 12.74237 c 0,4.40758 -0.5714,7.19881 -1.71411,8.37417 -1.14271,1.1427 -3.75461,1.77936 -7.8357,1.90996 v 1.81229 h 28.55123 v -1.81229 c -4.11372,-0.1306 -6.74208,-0.78318 -7.88479,-1.95854 -1.1427,-1.17535 -1.71411,-3.95066 -1.71411,-8.32559 v -12.74237 z" />
  </g>
</svg>
