<?xml version="1.0" encoding="UTF-8" standalone="no"?>
<!-- Created with Inkscape (http://www.inkscape.org/) -->

<svg
   width="149.4064mm"
   height="66.407829mm"
   viewBox="0 0 149.4064 66.407829"
   version="1.1"
   id="svg5"
   sodipodi:docname="logo-3.svg"
   xml:space="preserve"
   xmlns:inkscape="http://www.inkscape.org/namespaces/inkscape"
   xmlns:sodipodi="http://sodipodi.sourceforge.net/DTD/sodipodi-0.dtd"
   xmlns="http://www.w3.org/2000/svg"
   xmlns:svg="http://www.w3.org/2000/svg"><sodipodi:namedview
     id="namedview7"
     pagecolor="#ffffff"
     bordercolor="#000000"
     borderopacity="0.25"
     inkscape:showpageshadow="2"
     inkscape:pageopacity="0.0"
     inkscape:pagecheckerboard="0"
     inkscape:deskcolor="#d1d1d1"
     inkscape:document-units="mm"
     showgrid="false"
     inkscape:zoom="0.74564394"
     inkscape:cx="132.10058"
     inkscape:cy="561.9304"
     inkscape:window-width="1920"
     inkscape:window-height="1017"
     inkscape:window-x="-8"
     inkscape:window-y="-8"
     inkscape:window-maximized="1"
     inkscape:current-layer="layer1" /><defs
     id="defs2" /><g
     inkscape:label="Слой 1"
     inkscape:groupmode="layer"
     id="layer1"
     style="display:inline"
     transform="translate(-31.038729,-99.301946)"><path
       id="text113"
       style="font-size:100.297px;fill:#047286;fill-opacity:1;stroke-width:8.3581"
       d="m 71.338281,99.301949 v 1.812291 c 4.11374,0.1306 6.742085,0.78318 7.88479,1.95854 1.142706,1.17535 1.714108,3.95066 1.714108,8.32559 v 7.80107 h 9.402526 v -16.27342 h 30.804325 v 16.27342 h 9.40304 v -7.80107 c 0,-4.37493 0.57089,-7.15024 1.71359,-8.32559 1.14271,-1.17536 3.77105,-1.82794 7.88479,-1.95854 v -1.812291 z m 9.598898,46.510341 v 7.80107 c 0,4.37493 -0.571402,7.15024 -1.714108,8.32559 -1.142705,1.17536 -3.77105,1.82794 -7.88479,1.95854 v 1.81229 h 28.600322 v -1.81229 c -4.146389,-0.1306 -6.791177,-0.78318 -7.933883,-1.95854 -1.110057,-1.17535 -1.665015,-3.95066 -1.665015,-8.32559 v -7.80107 z m 40.206851,0 v 7.80107 c 0,4.40758 -0.57141,7.19881 -1.71411,8.37417 -1.14271,1.1427 -3.75461,1.77936 -7.8357,1.90996 v 1.81229 h 28.55123 v -1.81229 c -4.11374,-0.1306 -6.74208,-0.78318 -7.88479,-1.95854 -1.1427,-1.17535 -1.71359,-3.95066 -1.71359,-8.32559 v -7.80107 z"
       inkscape:export-filename="logo-big.svg"
       inkscape:export-xdpi="96"
       inkscape:export-ydpi="96" /><text
       xml:space="preserve"
       style="font-style:normal;font-variant:normal;font-weight:normal;font-stretch:normal;font-size:28.4108px;font-family:'Times New Roman';-inkscape-font-specification:'Times New Roman, ';fill:#047286;fill-opacity:1;stroke-width:2.36755"
       x="30.525448"
       y="141.91141"
       id="text275-1"><tspan
         sodipodi:role="line"
         id="tspan273-6"
         style="fill:#047286;fill-opacity:1;stroke-width:2.36755"
         x="30.525448"
         y="141.91141">ПЕМЗАБЕЛ</tspan></text></g></svg>
